<?xml version="1.0" standalone="no"?>
<!DOCTYPE svg PUBLIC "-//W3C//DTD SVG 20010904//EN"
 "http://www.w3.org/TR/2001/REC-SVG-20010904/DTD/svg10.dtd">
<svg version="1.0" xmlns="http://www.w3.org/2000/svg"
 width="100.000000pt" height="100.000000pt" viewBox="0 0 100.000000 100.000000"
 preserveAspectRatio="xMidYMid meet">
<metadata>
Created by potrace 1.14, written by Peter Selinger 2001-2017
</metadata>
<g transform="translate(0.000000,100.000000) scale(0.100000,-0.100000)"
fill="#000000" stroke="none">
<path d="M487 983 c-10 -9 -9 -41 1 -47 16 -10 34 11 27 33 -6 21 -16 26 -28
14z"/>
<path d="M462 883 c-11 -10 -43 -56 -70 -103 -48 -82 -49 -85 -30 -98 11 -8
21 -12 23 -11 1 2 26 44 55 92 28 49 57 86 63 84 7 -2 46 -62 87 -133 41 -71
83 -140 92 -153 l17 -24 11 24 c10 22 2 40 -70 164 -82 142 -108 175 -140 175
-10 0 -27 -8 -38 -17z"/>
<path d="M907 844 c-11 -12 13 -43 28 -38 22 9 19 44 -3 44 -10 0 -22 -3 -25
-6z"/>
<path d="M20 825 c-15 -18 -5 -35 20 -35 25 0 33 28 11 40 -14 7 -22 6 -31 -5z"/>
<path d="M85 761 c-7 -24 -1 -39 64 -153 43 -76 58 -95 68 -86 22 18 15 44
-28 114 -22 36 -39 70 -37 74 2 5 43 -16 93 -45 50 -30 95 -54 101 -55 9 0 29
41 21 45 -1 1 -53 29 -115 63 -118 65 -157 75 -167 43z"/>
<path d="M804 763 c-94 -54 -114 -68 -114 -80 0 -26 30 -25 76 2 25 15 47 25
49 23 2 -1 -21 -43 -51 -93 -29 -49 -53 -95 -54 -101 0 -5 6 -18 13 -29 13
-16 18 -10 64 71 94 165 103 185 92 206 -12 23 -36 23 -75 1z"/>
<path d="M478 660 c-37 -7 -78 -34 -78 -53 0 -5 7 -7 15 -4 11 5 12 1 5 -19
-14 -35 -12 -88 2 -102 14 -14 128 -16 128 -3 0 5 3 16 6 24 4 11 -3 15 -28
15 -54 0 -58 1 -58 17 0 8 8 15 18 16 9 1 26 2 37 3 11 0 21 9 23 19 3 13 -3
17 -28 17 -41 0 -35 24 6 27 16 0 36 2 45 2 16 1 34 29 25 38 -7 8 -80 9 -118
3z"/>
<path d="M284 592 c-6 -9 -50 -86 -99 -170 -68 -119 -86 -158 -81 -177 9 -36
39 -32 123 19 69 41 71 44 57 64 l-15 22 -49 -35 c-28 -19 -50 -30 -50 -24 0
7 36 73 81 148 58 97 78 140 72 150 -14 22 -27 23 -39 3z"/>
<path d="M759 468 c-11 -24 -7 -34 34 -105 25 -42 45 -79 43 -81 -2 -1 -43 20
-92 49 -164 95 -203 111 -259 110 -35 0 -65 -8 -89 -22 -39 -23 -41 -26 -26
-49 8 -13 13 -12 41 4 37 22 95 24 141 5 18 -7 91 -46 162 -86 196 -113 229
-94 132 75 -79 137 -73 130 -87 100z"/>
<path d="M311 366 c-11 -13 -7 -26 20 -73 105 -186 132 -213 183 -179 22 14
133 184 125 189 -2 2 -12 8 -21 16 -15 11 -22 4 -64 -68 -51 -88 -70 -109 -84
-95 -5 5 -35 56 -68 114 -32 57 -64 106 -69 107 -6 2 -16 -3 -22 -11z"/>
<path d="M51 210 c-17 -10 -7 -40 13 -40 7 0 16 6 19 14 8 19 -15 37 -32 26z"/>
<path d="M924 195 c-7 -18 3 -35 21 -35 21 0 28 19 15 35 -16 19 -29 19 -36 0z"/>
<path d="M471 56 c-9 -11 -8 -17 5 -31 19 -19 38 -7 32 21 -4 23 -22 28 -37
10z"/>
</g>
</svg>
